<svg id="Layer_1" data-name="Layer 1" xmlns="http://www.w3.org/2000/svg" viewBox="0 0 36.75 36.75"><defs><style>.cls-1{fill:#6f6f70;fill-rule:evenodd;}</style></defs><path class="cls-1" d="M297.92,403.06a18.38,18.38,0,1,0,18.38,18.38A18.37,18.37,0,0,0,297.92,403.06Zm9.6,20.33a9.21,9.21,0,0,0,.2-2,9.34,9.34,0,0,0-.2-2,9.12,9.12,0,0,0-.57-1.84,9.51,9.51,0,0,0-.9-1.66,9.25,9.25,0,0,0-1.2-1.45,9.77,9.77,0,0,0-1.45-1.19,9.56,9.56,0,0,0-1.66-.91,9.8,9.8,0,0,0-1.84-.57,10.07,10.07,0,0,0-2-.2,10,10,0,0,0-2,.2,9.8,9.8,0,0,0-1.84.57,10,10,0,0,0-1.67.91A10.31,10.31,0,0,0,291,414.5,9.77,9.77,0,0,0,289.8,416a9.56,9.56,0,0,0-.91,1.66,9.8,9.8,0,0,0-.57,1.84,10.05,10.05,0,0,0-.2,2,9.82,9.82,0,0,0,.77,3.81,9.56,9.56,0,0,0,.91,1.66,9.77,9.77,0,0,0,1.19,1.45,10.38,10.38,0,0,0,1.45,1.2,10.76,10.76,0,0,0,1.67.9A9.8,9.8,0,0,0,296,431a10,10,0,0,0,2,.2,10.07,10.07,0,0,0,2-.2,9.8,9.8,0,0,0,1.84-.57,10.22,10.22,0,0,0,1.66-.9,9.83,9.83,0,0,0,1.45-1.2,9.25,9.25,0,0,0,1.2-1.45,9.51,9.51,0,0,0,.9-1.66A9.12,9.12,0,0,0,307.52,423.39Z" transform="translate(-279.55 -403.06)"/><path class="cls-1" d="M297.92,413.06a8.33,8.33,0,0,1,5.53,2.09h0a9.15,9.15,0,0,1-4.37,3,41.41,41.41,0,0,0-3.12-4.85v0A8.5,8.5,0,0,1,297.92,413.06Zm2.36,7.57c-.17-.41-.36-.81-.56-1.21a10.82,10.82,0,0,0,4.67-3.31h0a8.35,8.35,0,0,1,1.9,5.23h0a19.86,19.86,0,0,0-5.82-.27Zm5.91,2.12a8.36,8.36,0,0,1-3.59,5.6,36.78,36.78,0,0,0-1.63-6A12.12,12.12,0,0,1,306.19,422.75Zm-6.79,0h0a11.35,11.35,0,0,0-6.57,5.22,8.38,8.38,0,0,0,8.41,1.11A34.38,34.38,0,0,0,299.4,422.77Zm-1.25-2.8a31.17,31.17,0,0,1-8.59,1.19v.08a1.09,1.09,0,0,0,0,.18A8.3,8.3,0,0,0,291.7,427a13,13,0,0,1,6.8-5.52l.33-.1C298.62,420.91,298.39,420.43,298.15,420Zm-8.42-.27a8.4,8.4,0,0,1,4.62-5.84,51.31,51.31,0,0,1,3.11,4.82,31.54,31.54,0,0,1-7.72,1Z" transform="translate(-279.55 -403.06)"/></svg>