<svg id="Layer_1" data-name="Layer 1" xmlns="http://www.w3.org/2000/svg" viewBox="0 0 36.75 36.75"><defs><style>.cls-1{fill:#6f6f70;fill-rule:evenodd;}</style></defs><path class="cls-1" d="M297.92,439.81a18.38,18.38,0,1,0-18.37-18.37A18.37,18.37,0,0,0,297.92,439.81Zm.26-19.41c-1.44,0-8.83-4.19-8.83-4.19v-.65a1.47,1.47,0,0,1,1.47-1.48h14.72a1.47,1.47,0,0,1,1.47,1.48v.73S299.68,420.4,298.18,420.4Zm8.82-1.9s-7.25,3.93-8.82,3.93-8.82-3.93-8.82-3.93v8.82a1.47,1.47,0,0,0,1.47,1.47h14.72a1.47,1.47,0,0,0,1.47-1.47Z" transform="translate(-279.55 -403.06)"/></svg>