<svg id="Layer_1" data-name="Layer 1" xmlns="http://www.w3.org/2000/svg" viewBox="0 0 36.69 35.79"><defs><style>.cls-1{fill:#6f6f70;fill-rule:evenodd;}</style></defs><path class="cls-1" d="M297.92,403.47a18.35,18.35,0,0,0-5.8,35.75c.92.17,1.26-.39,1.26-.88s0-1.88,0-3.41c-5.1,1.11-6.18-2.17-6.18-2.17a4.82,4.82,0,0,0-2-2.68c-1.67-1.14.12-1.12.12-1.12a3.86,3.86,0,0,1,2.81,1.89,3.9,3.9,0,0,0,5.34,1.53,3.92,3.92,0,0,1,1.17-2.46c-4.08-.46-8.36-2-8.36-9.06a7.13,7.13,0,0,1,1.89-4.93,6.56,6.56,0,0,1,.18-4.85s1.54-.49,5,1.88a17.34,17.34,0,0,1,9.19,0c3.5-2.37,5-1.88,5-1.88a6.56,6.56,0,0,1,.18,4.85,7.13,7.13,0,0,1,1.89,4.93c0,7-4.3,8.6-8.38,9.05a4.39,4.39,0,0,1,1.24,3.4c0,2.45,0,4.43,0,5s.33,1.06,1.26.88a18.35,18.35,0,0,0-5.81-35.75Z" transform="translate(-279.58 -403.47)"/><path class="cls-1" d="M286.53,429.81c0,.09-.19.12-.32.06s-.2-.19-.16-.28a.23.23,0,0,1,.31-.06C286.5,429.59,286.57,429.72,286.53,429.81Z" transform="translate(-279.58 -403.47)"/><path class="cls-1" d="M287.27,430.64a.35.35,0,0,1-.43-.47c.09-.08.26,0,.38.09S287.36,430.56,287.27,430.64Z" transform="translate(-279.58 -403.47)"/><path class="cls-1" d="M288,431.7c-.11.07-.29,0-.41-.16s-.11-.36,0-.44.29,0,.41.15S288.11,431.62,288,431.7Z" transform="translate(-279.58 -403.47)"/><path class="cls-1" d="M289,432.72c-.1.11-.31.08-.47-.07a.35.35,0,0,1-.1-.47c.1-.11.32-.08.47.07S289.09,432.61,289,432.72Z" transform="translate(-279.58 -403.47)"/><path class="cls-1" d="M290.35,433.31c0,.14-.25.21-.46.15s-.34-.23-.3-.38.25-.21.46-.15S290.39,433.16,290.35,433.31Z" transform="translate(-279.58 -403.47)"/><path class="cls-1" d="M291.85,433.42c0,.15-.17.28-.39.28s-.39-.12-.4-.27.18-.27.4-.28S291.85,433.27,291.85,433.42Z" transform="translate(-279.58 -403.47)"/><path class="cls-1" d="M293.25,433.18c0,.15-.13.3-.34.34s-.41,0-.44-.2.13-.3.34-.34S293.22,433,293.25,433.18Z" transform="translate(-279.58 -403.47)"/></svg>